<svg xmlns="http://www.w3.org/2000/svg" viewBox="0 0 128 128">
  <rect width="128" height="128" rx="28" fill="#070403"/>
  <circle cx="34" cy="20" r="52" fill="#FF6E00" opacity="0.18"/>
  <circle cx="98" cy="104" r="58" fill="#FF8B1F" opacity="0.1"/>
  <g transform="translate(16 24) scale(0.374) translate(0 0)">
    <path fill="#FF6E00" d="M234.7,136.89l20.51-21.67c1.55-1.64,2.01-4.03,1.18-6.13L214.51,3.66c-.88-2.21-3.02-3.66-5.4-3.66H65.05c-1.6,0-3.12.66-4.22,1.82L7.63,58.05c-3.5,3.7-.88,9.8,4.22,9.8h6.04c5.1,0,7.72,6.09,4.22,9.8L1.59,99.31c-1.55,1.64-2.01,4.03-1.18,6.13l41.87,105.42c.88,2.21,3.02,3.66,5.4,3.66h144.07c1.6,0,3.12-.66,4.22-1.82l53.2-56.23c3.5-3.7.88-9.8-4.22-9.8h-6.04c-5.1,0-7.72-6.09-4.22-9.8ZM42.18,67.84h58.27c1.6,0,3.12-.66,4.22-1.82l53.72-56.77c3.35-3.54,9.24-2.41,11.04,2.12l50.58,127.35c1.51,3.81-1.29,7.95-5.4,7.95h-58.27c-1.6,0-3.12.66-4.22,1.82l-53.72,56.77c-3.35,3.54-9.24,2.41-11.04-2.12l-50.58-127.35c-1.51-3.81,1.29-7.95,5.4-7.95Z"/>
  </g>
  <path d="M25 103h78" stroke="#FFD5B4" stroke-width="4" stroke-linecap="round" opacity="0.78"/>
</svg>
