<svg xmlns="http://www.w3.org/2000/svg" width="1440" height="900" viewBox="0 0 1440 900">
  <defs>
    <linearGradient id="bg" x1="0" y1="0" x2="1" y2="1">
      <stop offset="0" stop-color="#0B0D10"/>
      <stop offset="1" stop-color="#11151A"/>
    </linearGradient>
    <filter id="shadow" x="-20%" y="-20%" width="140%" height="140%">
      <feDropShadow dx="0" dy="28" stdDeviation="38" flood-color="#000000" flood-opacity="0.45"/>
    </filter>
  </defs>
  <rect width="1440" height="900" fill="url(#bg)"/>
  <circle cx="1160" cy="90" r="240" fill="#FF7A1A" opacity="0.08"/>
  <circle cx="200" cy="780" r="260" fill="#57A6FF" opacity="0.05"/>
  <text x="92" y="118" fill="#F4F7FA" font-family="Inter, system-ui, sans-serif" font-size="54" font-weight="800">Lemain Studio</text>
  <text x="94" y="164" fill="#9AA4AF" font-family="Inter, system-ui, sans-serif" font-size="22">Soft black. Minimal. Built for long coding sessions.</text>
  <g transform="translate(92 220)" filter="url(#shadow)">
    <rect width="1256" height="572" rx="22" fill="#090B0E"/>
    <rect x="0" y="0" width="1256" height="54" rx="22" fill="#101317"/>
    <path d="M0 32h1256v22H0z" fill="#101317"/>
    <circle cx="28" cy="27" r="7" fill="#F87171"/>
    <circle cx="52" cy="27" r="7" fill="#DCDCAA"/>
    <circle cx="76" cy="27" r="7" fill="#6AAB73"/>
    <rect x="116" y="12" width="178" height="30" rx="9" fill="#0B0D10"/>
    <text x="136" y="32" fill="#C9D1D9" font-family="Menlo, monospace" font-size="13">app/service.ts</text>
    <rect x="294" y="12" width="1" height="30" fill="#1A1F26"/>
    <rect x="295" y="12" width="168" height="30" rx="9" fill="#11151A"/>
    <text x="315" y="32" fill="#7D8792" font-family="Menlo, monospace" font-size="13">theme.json</text>
    <g transform="translate(0 54)">
      <rect width="76" height="518" fill="#0B0D10"/>
      <rect x="76" width="1" height="518" fill="#1A1F26"/>
      <rect x="77" width="1179" height="518" fill="#0B0D10"/>
      <rect x="77" y="138" width="1179" height="28" fill="#151A20" opacity="0.8"/>
      <g font-family="Menlo, Monaco, monospace" font-size="17">
        <text x="32" y="42" fill="#4D5661">1</text>
        <text x="32" y="75" fill="#4D5661">2</text>
        <text x="32" y="108" fill="#4D5661">3</text>
        <text x="32" y="141" fill="#AEB7C2">4</text>
        <text x="32" y="174" fill="#4D5661">5</text>
        <text x="32" y="207" fill="#4D5661">6</text>
        <text x="32" y="240" fill="#4D5661">7</text>
        <text x="32" y="273" fill="#4D5661">8</text>
        <text x="32" y="306" fill="#4D5661">9</text>
        <text x="22" y="339" fill="#4D5661">10</text>
        <text x="106" y="42" fill="#CF8E6D">export</text>
        <text x="176" y="42" fill="#CF8E6D">async</text>
        <text x="236" y="42" fill="#CF8E6D">function</text>
        <text x="330" y="42" fill="#77BDFB" font-weight="700">buildThemePalette</text>
        <text x="508" y="42" fill="#8D96A3">(</text>
        <text x="520" y="42" fill="#AEB7C2" font-style="italic">brand</text>
        <text x="573" y="42" fill="#8D96A3">:</text>
        <text x="594" y="42" fill="#DCDCAA" font-weight="700">BrandTokens</text>
        <text x="704" y="42" fill="#8D96A3">) {</text>
        <text x="134" y="75" fill="#CF8E6D">const</text>
        <text x="190" y="75" fill="#C9D1D9">surface</text>
        <text x="268" y="75" fill="#B8C0CC">=</text>
        <text x="290" y="75" fill="#57A6FF">mix</text>
        <text x="324" y="75" fill="#8D96A3">(</text>
        <text x="338" y="75" fill="#6AAB73">"#0B0D10"</text>
        <text x="444" y="75" fill="#8D96A3">,</text>
        <text x="466" y="75" fill="#6AAB73">"#14181E"</text>
        <text x="572" y="75" fill="#8D96A3">,</text>
        <text x="594" y="75" fill="#6897BB">0.64</text>
        <text x="640" y="75" fill="#8D96A3">);</text>
        <text x="134" y="108" fill="#CF8E6D">return</text>
        <text x="202" y="108" fill="#8D96A3">{</text>
        <text x="162" y="141" fill="#FF9D45" font-weight="700">accent</text>
        <text x="226" y="141" fill="#8D96A3">:</text>
        <text x="248" y="141" fill="#C9D1D9">brand</text>
        <text x="304" y="141" fill="#8D96A3">.</text>
        <text x="316" y="141" fill="#C9D1D9">orange</text>
        <text x="378" y="141" fill="#8D96A3">,</text>
        <text x="162" y="174" fill="#C9D1D9">surface</text>
        <text x="236" y="174" fill="#8D96A3">,</text>
        <text x="162" y="207" fill="#FF9D45" font-weight="700">selection</text>
        <text x="252" y="207" fill="#8D96A3">:</text>
        <text x="274" y="207" fill="#6AAB73">"#34404D"</text>
        <text x="380" y="207" fill="#8D96A3">,</text>
        <text x="162" y="240" fill="#FF9D45" font-weight="700">syntax</text>
        <text x="226" y="240" fill="#8D96A3">:</text>
        <text x="248" y="240" fill="#57A6FF">createDarculaScale</text>
        <text x="426" y="240" fill="#8D96A3">(),</text>
        <text x="134" y="273" fill="#8D96A3">};</text>
        <text x="106" y="306" fill="#8D96A3">}</text>
        <text x="106" y="372" fill="#6B737D" font-style="italic">// Crisp contrast, quiet chrome, Lemain accent where it matters.</text>
      </g>
    </g>
  </g>
</svg>
